<?xml version="1.0" standalone="no"?>
<!DOCTYPE svg PUBLIC "-//W3C//DTD SVG 20010904//EN"
 "http://www.w3.org/TR/2001/REC-SVG-20010904/DTD/svg10.dtd">
<svg version="1.0" xmlns="http://www.w3.org/2000/svg"
 width="256.000000pt" height="256.000000pt" viewBox="0 0 256.000000 256.000000"
 preserveAspectRatio="xMidYMid meet">
<metadata>
Created by potrace 1.10, written by Peter Selinger 2001-2011
</metadata>
<g transform="translate(0.000000,256.000000) scale(0.100000,-0.100000)"
fill="#f60303" stroke="none">
<path d="M822 2308 c-15 -15 -15 -51 0 -66 18 -18 53 -14 73 8 15 17 16 24 7
45 -13 27 -58 35 -80 13z m55 -24 c3 -8 1 -20 -5 -26 -15 -15 -43 8 -35 28 7
19 32 18 40 -2z"/>
<path d="M1415 2256 c-29 -13 -55 -51 -55 -82 0 -32 31 -73 63 -83 60 -20 117
20 117 82 0 41 -17 67 -55 83 -40 16 -33 16 -70 0z m85 -36 c41 -41 13 -110
-43 -110 -38 0 -50 7 -66 38 -10 19 -10 30 -1 52 18 43 77 53 110 20z"/>
<path d="M1081 2049 c-120 -23 -262 -130 -312 -235 -22 -48 -28 -52 -81 -69
-66 -20 -136 -76 -172 -138 -48 -83 -53 -207 -10 -288 15 -30 15 -32 -10 -58
-14 -14 -37 -53 -53 -86 -53 -116 -31 -258 56 -357 33 -38 139 -98 172 -98 13
0 20 -10 24 -37 20 -115 72 -201 158 -258 66 -44 163 -69 230 -61 59 8 142 39
167 61 17 15 21 15 59 -9 90 -57 204 -56 292 3 42 29 95 97 105 137 5 19 14
22 67 26 231 15 397 261 331 489 -9 30 -22 65 -31 77 -13 22 -13 26 6 45 32
35 61 109 61 160 0 84 -67 186 -135 203 -20 5 -25 12 -25 39 0 265 -258 468
-509 402 -41 -11 -50 -10 -100 14 -95 46 -190 58 -290 38z m254 -46 c89 -37
91 -37 167 -23 121 23 233 -10 329 -98 83 -76 114 -146 122 -277 2 -33 8 -43
37 -62 72 -45 99 -74 115 -124 23 -68 15 -114 -29 -188 l-36 -59 26 -59 c54
-118 31 -285 -52 -382 -65 -75 -145 -117 -244 -127 -65 -7 -67 -9 -91 -59 -12
-25 -29 -51 -39 -58 -9 -7 -17 -16 -17 -22 -1 -5 -24 -22 -52 -38 -76 -43
-155 -43 -237 0 l-61 32 -54 -29 c-138 -72 -297 -51 -400 53 -47 46 -86 117
-95 169 -13 78 -12 77 -65 93 -85 25 -150 82 -194 169 -20 40 -25 65 -25 123
0 64 20 146 39 163 3 3 19 24 34 46 l28 41 -22 54 c-29 75 -23 188 15 253 34
58 95 110 148 125 65 19 69 22 110 91 33 55 118 153 118 137 0 -3 11 4 24 16
13 12 48 31 77 42 110 40 224 39 324 -2z"/>
<path d="M1315 1679 c-11 -6 -31 -22 -45 -34 -29 -27 -55 -32 -90 -18 -14 6
-42 18 -64 27 -55 23 -85 20 -153 -14 -52 -26 -64 -38 -91 -88 -16 -31 -36
-76 -43 -99 -7 -24 -15 -43 -19 -43 -4 0 -7 -6 -6 -12 0 -7 -11 -51 -26 -98
-52 -160 -88 -293 -88 -319 0 -39 40 -102 83 -131 51 -34 129 -35 179 -1 39
27 35 19 148 301 75 186 98 230 122 230 4 0 8 -12 8 -27 0 -27 -22 -90 -89
-253 -38 -94 -38 -114 -1 -152 28 -28 35 -30 78 -25 57 6 85 36 137 145 23 48
39 71 46 66 7 -4 9 -3 5 4 -8 14 111 262 130 269 37 14 30 -8 -88 -252 -36
-75 -48 -112 -48 -146 0 -82 11 -111 60 -160 56 -56 125 -76 248 -70 42 1 82
40 82 79 0 32 -28 73 -51 78 -8 2 -32 6 -54 10 -57 10 -65 19 -65 78 1 37 12
77 41 146 125 294 133 327 105 393 -7 18 -28 45 -46 61 -30 26 -40 29 -106 30
-46 0 -78 -4 -86 -12 -18 -18 -30 -15 -62 15 -33 30 -116 42 -151 22z m145
-44 c41 -34 42 -34 72 -19 22 11 50 15 94 12 75 -5 108 -29 125 -91 14 -53 2
-99 -66 -257 -123 -284 -125 -338 -9 -354 70 -11 96 -30 92 -69 -4 -46 -36
-59 -129 -54 -141 9 -219 77 -219 194 0 39 15 79 80 218 50 104 80 179 78 195
-3 28 -31 38 -53 20 -8 -7 -67 -113 -130 -236 -64 -123 -126 -230 -138 -239
-46 -32 -127 -6 -127 41 0 9 29 90 65 181 36 90 65 170 65 178 0 7 -8 23 -18
35 -14 18 -22 20 -43 11 -23 -8 -39 -41 -123 -254 -96 -245 -114 -275 -168
-296 -50 -19 -130 7 -167 55 -45 57 -41 82 76 439 71 218 105 271 191 295 53
14 60 13 130 -20 79 -37 93 -37 134 -2 75 65 125 70 188 17z"/>
<path d="M607 1962 c-23 -25 -21 -75 3 -97 29 -26 70 -22 97 9 28 33 29 46 2
80 -25 32 -77 36 -102 8z m81 -14 c30 -30 3 -82 -40 -76 -29 4 -47 50 -28 72
15 19 51 21 68 4z"/>
<path d="M2105 1760 c-55 -21 -66 -88 -21 -127 35 -30 71 -29 101 2 31 30 32
66 3 99 -27 29 -55 38 -83 26z m75 -60 c5 -35 -2 -51 -25 -60 -32 -12 -54 -3
-65 25 -14 38 -2 63 34 67 33 4 53 -8 56 -32z"/>
<path d="M2352 1468 c-7 -7 -12 -19 -12 -28 0 -40 61 -55 80 -21 13 25 13 27
-6 45 -18 19 -45 21 -62 4z m48 -32 c0 -2 -7 -6 -15 -10 -8 -3 -15 -1 -15 4 0
6 7 10 15 10 8 0 15 -2 15 -4z"/>
<path d="M275 1401 c-85 -36 -74 -157 16 -176 51 -11 109 39 109 95 0 27 -49
78 -80 84 -14 3 -34 1 -45 -3z m73 -37 c27 -18 30 -69 5 -96 -20 -22 -70 -23
-95 -1 -22 20 -23 70 -1 95 20 22 61 23 91 2z"/>
<path d="M2223 1184 c-15 -24 -15 -29 -2 -53 11 -20 22 -26 49 -26 27 0 38 6
49 26 13 24 13 29 -2 53 -12 18 -26 26 -47 26 -21 0 -35 -8 -47 -26z m72 -24
c0 -18 -6 -26 -23 -28 -24 -4 -38 18 -28 44 3 9 15 14 28 12 17 -2 23 -10 23
-28z"/>
<path d="M561 636 c-7 -8 -11 -25 -9 -38 2 -18 9 -23 32 -23 36 0 56 27 40 53
-14 22 -48 27 -63 8z m39 -26 c0 -5 -8 -10 -17 -10 -15 0 -16 2 -3 10 19 12
20 12 20 0z"/>
<path d="M1820 503 c-55 -21 -81 -83 -56 -132 20 -37 44 -51 88 -51 87 0 126
104 61 162 -21 20 -70 30 -93 21z m80 -47 c40 -56 9 -117 -57 -111 -47 4 -66
28 -59 75 3 19 5 36 6 38 0 2 14 9 32 16 37 16 57 11 78 -18z"/>
<path d="M1225 314 c-24 -25 -16 -75 16 -93 24 -13 29 -13 53 2 47 31 27 107
-29 107 -13 0 -31 -7 -40 -16z m61 -18 c8 -8 14 -19 14 -24 0 -18 -26 -31 -48
-25 -26 7 -29 38 -4 52 22 13 21 13 38 -3z"/>
</g>
</svg>
